<?xml version="1.0" standalone="no"?>
<!DOCTYPE svg PUBLIC "-//W3C//DTD SVG 20010904//EN"
 "http://www.w3.org/TR/2001/REC-SVG-20010904/DTD/svg10.dtd">
<svg version="1.0" xmlns="http://www.w3.org/2000/svg"
 width="128.000000pt" height="128.000000pt" viewBox="0 0 128.000000 128.000000"
 preserveAspectRatio="xMidYMid meet">

<g transform="translate(0.000000,128.000000) scale(0.100000,-0.100000)"
fill="#000000" stroke="none">
<path d="M693 1026 l-262 -71 306 -3 c168 -1 308 -1 309 1 5 5 -28 121 -39
135 -14 18 -31 15 -314 -62z"/>
<path d="M111 861 c-19 -19 -19 -21 10 -127 16 -60 31 -113 33 -119 2 -5 5 52
5 128 1 115 -1 137 -14 137 -8 0 -24 -9 -34 -19z"/>
</g>
</svg>
